<svg width="72" height="55" viewBox="0 0 72 55" fill="none" xmlns="http://www.w3.org/2000/svg">
<path d="M0.512 36.192C0.256 36.192 0.128 36.0427 0.128 35.744C0.128 35.5307 0.192 35.2747 0.32 34.976C0.661333 34.2507 1.04533 33.2267 1.472 31.904C1.94133 30.5813 2.51733 29.4507 3.2 28.512C3.41333 28.0427 3.73333 27.4667 4.16 26.784C4.62933 26.0587 5.07733 25.2053 5.504 24.224V23.904C5.504 23.776 5.504 23.6693 5.504 23.584C5.54667 23.456 5.58933 23.328 5.632 23.2C5.80267 22.8587 5.952 22.624 6.08 22.496C6.25067 22.368 6.42133 22.1333 6.592 21.792C6.592 21.7067 6.592 21.6213 6.592 21.536C6.63467 21.4507 6.67733 21.3653 6.72 21.28C6.63467 21.3653 6.61333 21.3013 6.656 21.088C6.57067 21.088 6.656 20.8747 6.912 20.448C7.08267 20.064 7.21067 19.8507 7.296 19.808H7.36C7.53067 19.552 7.68 19.3387 7.808 19.168C7.936 18.9547 7.97867 18.8267 7.936 18.784V18.656C7.936 18.3573 8.02133 18.08 8.192 17.824C8.40533 17.568 8.59733 17.2907 8.768 16.992C8.896 16.8213 9.00267 16.736 9.088 16.736C9.17333 16.736 9.216 16.7573 9.216 16.8C9.25867 16.8 9.30133 16.8 9.344 16.8C9.472 16.8 9.536 16.6933 9.536 16.48C9.536 16.3947 9.51467 16.288 9.472 16.16C9.472 16.032 9.45067 15.8827 9.408 15.712C9.45067 15.4987 9.62133 15.328 9.92 15.2L10.112 15.136C10.3253 14.24 10.5813 13.6427 10.88 13.344C10.9653 13.2587 11.0507 13.1733 11.136 13.088C11.2213 13.0027 11.3067 12.9173 11.392 12.832C11.904 12.2773 12.288 11.68 12.544 11.04C12.6293 10.8693 12.736 10.7413 12.864 10.656C13.0347 10.528 13.184 10.3787 13.312 10.208C13.3973 10.08 13.4187 9.952 13.376 9.824C13.376 9.65333 13.3973 9.504 13.44 9.376C13.6533 9.03467 13.8027 8.84267 13.888 8.8C13.9733 8.75733 14.0587 8.71467 14.144 8.672C14.272 8.58667 14.4853 8.39467 14.784 8.096C14.912 7.88267 15.04 7.66933 15.168 7.456C15.3387 7.24266 15.5093 7.02933 15.68 6.816C15.936 6.51733 16.2133 6.304 16.512 6.176C16.8107 6.048 17.1093 5.856 17.408 5.6C17.4933 5.51466 17.536 5.38666 17.536 5.216C17.536 5.00266 17.5787 4.85333 17.664 4.768C19.1573 3.57333 20.7573 2.57066 22.464 1.76C24.2133 0.949332 25.5573 0.543999 26.496 0.543999C26.8373 0.543999 27.1573 0.565332 27.456 0.607998C27.7973 0.650664 28.1173 0.714664 28.416 0.799999H28.544C28.7573 0.799999 28.9707 0.842665 29.184 0.927998C29.3973 1.01333 29.5893 1.09867 29.76 1.184C29.9307 1.184 30.144 1.22666 30.4 1.312C30.6133 1.39733 30.7413 1.52533 30.784 1.696C30.8267 1.86667 30.784 1.99467 30.656 2.08C30.6133 2.12266 30.5493 2.12266 30.464 2.08C30.3787 2.03733 30.2933 2.016 30.208 2.016C30.1227 2.016 30.0373 1.97333 29.952 1.888C29.8667 1.80266 29.7813 1.73867 29.696 1.696C29.5253 1.696 29.3333 1.71733 29.12 1.76C28.9493 1.80266 28.7573 1.824 28.544 1.824H28.352C28.0533 1.824 27.84 1.78133 27.712 1.696C27.6267 1.568 27.4133 1.54667 27.072 1.632C27.0293 1.632 26.9013 1.65333 26.688 1.696C26.4747 1.73867 26.3253 1.76 26.24 1.76C24.704 2.144 23.36 2.784 22.208 3.68C21.056 4.53333 20.032 5.49333 19.136 6.56C18.2827 7.62667 17.4507 8.65066 16.64 9.632C16.256 10.4 15.872 11.0187 15.488 11.488C15.4453 11.5307 15.4027 11.5093 15.36 11.424C15.3173 11.3387 15.2747 11.3387 15.232 11.424C15.104 11.552 14.9973 11.7653 14.912 12.064C14.8693 12.32 14.784 12.5333 14.656 12.704C14.6133 12.7467 14.5707 12.7253 14.528 12.64C14.4853 12.5547 14.4213 12.5547 14.336 12.64C14.2933 12.6827 14.2293 12.8533 14.144 13.152C14.1013 13.408 14.0373 13.5787 13.952 13.664C13.44 14.3467 12.8853 15.008 12.288 15.648C11.6907 16.288 11.0933 17.0347 10.496 17.888C9.64267 19.2107 8.832 20.512 8.064 21.792C7.296 23.072 6.48533 24.48 5.632 26.016C5.33333 26.528 5.09867 26.9973 4.928 27.424C4.8 27.808 4.65067 28.1707 4.48 28.512C4.39467 28.64 4.352 28.8107 4.352 29.024C4.352 29.3227 4.52267 29.472 4.864 29.472C5.12 29.472 5.376 29.408 5.632 29.28L6.272 29.024C7.296 28.0853 8.36267 27.296 9.472 26.656C9.51467 26.656 9.536 26.656 9.536 26.656C9.57867 26.6133 9.62133 26.592 9.664 26.592C9.792 26.592 9.87733 26.6773 9.92 26.848C9.96267 26.976 9.92 27.0827 9.792 27.168C8.55467 27.8507 7.40267 28.7253 6.336 29.792C6.29333 29.8773 6.25067 29.9627 6.208 30.048C6.16533 30.1333 6.10133 30.2187 6.016 30.304C5.93067 30.3893 5.80267 30.5387 5.632 30.752C5.504 30.9653 5.44 31.0933 5.44 31.136C5.39733 31.264 5.33333 31.3067 5.248 31.264C5.20533 31.2213 5.07733 31.2853 4.864 31.456C4.82133 31.4987 4.77867 31.584 4.736 31.712C4.736 31.84 4.71467 31.9467 4.672 32.032C4.62933 32.16 4.544 32.2667 4.416 32.352C4.33067 32.3947 4.288 32.4373 4.288 32.48C4.24533 32.6507 4.16 32.7573 4.032 32.8C3.94667 32.8 3.86133 32.8427 3.776 32.928C3.73333 32.9707 3.73333 33.0347 3.776 33.12C3.81867 33.2053 3.79733 33.2907 3.712 33.376C3.66933 33.504 3.62667 33.568 3.584 33.568C3.54133 33.5253 3.47733 33.5467 3.392 33.632C3.22133 33.8027 3.09333 33.888 3.008 33.888C2.752 33.9733 2.64533 34.0373 2.688 34.08C2.77333 34.1227 2.83733 34.1653 2.88 34.208C2.96533 34.208 2.90133 34.272 2.688 34.4C2.60267 34.4427 2.51733 34.5707 2.432 34.784C2.34667 34.9547 2.26133 35.0827 2.176 35.168C2.048 35.2533 1.92 35.3173 1.792 35.36C1.70667 35.4027 1.6 35.488 1.472 35.616C1.088 36 0.768 36.192 0.512 36.192ZM15.0945 36.576C14.1558 36.576 13.3238 36.32 12.5985 35.808C11.9158 35.2533 11.5745 34.3147 11.5745 32.992C11.5745 32.5227 11.6598 31.8613 11.8305 31.008C12.0012 30.1547 12.2785 29.2587 12.6625 28.32C12.8758 27.808 13.1105 27.3173 13.3665 26.848C13.6652 26.3787 13.9425 25.9307 14.1985 25.504C14.2412 25.4613 14.3692 25.504 14.5825 25.632C14.8385 25.76 14.9878 25.8027 15.0305 25.76C15.0732 25.6747 15.0092 25.5893 14.8385 25.504C14.7105 25.376 14.6678 25.2907 14.7105 25.248C14.7958 25.1627 14.8598 25.12 14.9025 25.12C14.9878 25.0773 15.0518 25.0133 15.0945 24.928C15.1372 24.8427 15.1585 24.7573 15.1585 24.672C15.1585 24.544 15.0945 24.4373 14.9665 24.352C14.8812 24.2667 14.9238 24.1387 15.0945 23.968C15.3078 23.6693 15.5425 23.392 15.7985 23.136C16.0972 22.8373 16.3532 22.5813 16.5665 22.368C16.6518 22.2827 16.7585 22.1547 16.8865 21.984C17.0145 21.7707 17.0998 21.6427 17.1425 21.6L17.2705 21.472C17.3132 21.4293 17.3558 21.3867 17.3985 21.344C17.3985 21.3013 17.3985 21.28 17.3985 21.28C17.4412 21.28 17.4625 21.2587 17.4625 21.216C17.4625 21.088 17.3345 20.96 17.0785 20.832C16.8225 20.704 16.6945 20.6187 16.6945 20.576C16.6945 20.5333 16.6732 20.4907 16.6305 20.448C16.5878 20.4053 16.5452 20.3413 16.5025 20.256C16.5452 20.256 16.5878 20.2133 16.6305 20.128C16.7158 20 16.7798 19.936 16.8225 19.936C16.8652 19.936 16.9505 19.9787 17.0785 20.064C17.2065 20.1067 17.2918 20.128 17.3345 20.128C17.3772 20.128 17.3985 20.1067 17.3985 20.064C17.4412 20.0213 17.4838 20 17.5265 20C17.6118 20 17.8038 20.064 18.1025 20.192C18.4012 20.2773 18.5718 20.32 18.6145 20.32C18.6572 20.32 18.7852 20.2133 18.9985 20C19.2118 19.7867 19.3398 19.6587 19.3825 19.616C19.4678 19.5307 19.5318 19.4453 19.5745 19.36C19.6172 19.232 19.7238 19.0827 19.8945 18.912H19.9585C20.0012 18.8693 20.0225 18.8267 20.0225 18.784C20.0225 18.7413 20.0225 18.72 20.0225 18.72C20.1078 18.6347 20.1718 18.5707 20.2145 18.528C20.2998 18.4427 20.3638 18.3787 20.4065 18.336C20.4492 18.2933 20.4705 18.272 20.4705 18.272C20.5132 18.272 20.5345 18.272 20.5345 18.272C20.5772 18.1867 20.6198 18.1227 20.6625 18.08C20.7478 18.0373 20.8118 17.9947 20.8545 17.952L20.9825 17.696C21.0678 17.6107 21.3665 17.4187 21.8785 17.12C22.3905 16.8213 22.7745 16.672 23.0305 16.672H23.3505C23.3505 16.672 23.3505 16.6933 23.3505 16.736C23.3505 16.736 23.3718 16.736 23.4145 16.736C23.4572 16.736 23.4998 16.736 23.5425 16.736C23.5852 16.6933 23.6278 16.672 23.6705 16.672C23.6705 16.672 23.7345 16.736 23.8625 16.864C23.9052 16.9067 23.9478 16.928 23.9905 16.928C24.0332 16.8853 24.0758 16.864 24.1185 16.864C24.1612 16.9067 24.1825 16.9493 24.1825 16.992C24.1825 17.0347 24.2038 17.056 24.2465 17.056C24.3318 17.056 24.3532 17.056 24.3105 17.056C24.3105 17.0133 24.3318 16.992 24.3745 16.992C24.4172 16.992 24.4385 17.0347 24.4385 17.12C24.4385 17.2053 24.4598 17.2907 24.5025 17.376C24.4598 17.504 24.4172 17.6533 24.3745 17.824C24.3745 17.952 24.3532 18.0587 24.3105 18.144C23.9265 18.656 23.6278 18.912 23.4145 18.912C23.4145 18.9547 23.3505 19.04 23.2225 19.168C23.0945 19.168 22.9452 19.2107 22.7745 19.296C22.6038 19.3813 22.4332 19.4667 22.2625 19.552V19.744C22.2625 19.9147 22.1985 20 22.0705 20C21.9852 19.9573 21.8998 20.0213 21.8145 20.192V20.256C21.8998 20.384 22.0492 20.448 22.2625 20.448L22.7105 20.512C22.7958 20.512 22.8385 20.4907 22.8385 20.448C22.8812 20.4053 22.9238 20.384 22.9665 20.384C23.0092 20.384 23.0305 20.4053 23.0305 20.448C23.0305 20.448 23.0518 20.448 23.0945 20.448C23.1798 20.448 23.2438 20.4267 23.2865 20.384C23.3292 20.3413 23.3718 20.32 23.4145 20.32L23.9905 20.384C23.8625 20.1707 23.7985 20 23.7985 19.872C23.7985 19.6587 23.9905 19.5307 24.3745 19.488C24.9718 19.488 25.4838 19.7013 25.9105 20.128C25.9958 20.0853 26.1025 20.0853 26.2305 20.128C26.3585 20.1707 26.4865 20.1707 26.6145 20.128L26.9345 19.936L26.9985 20C27.1692 19.9147 27.2758 19.872 27.3185 19.872C27.4038 19.872 27.4252 19.8933 27.3825 19.936C27.3825 19.936 27.4038 19.936 27.4465 19.936C27.4465 19.936 27.4892 19.8933 27.5745 19.808C27.6172 19.808 27.6598 19.8293 27.7025 19.872C27.7878 19.872 27.8518 19.8507 27.8945 19.808L28.0865 19.616H28.8545L28.9185 19.552C29.0038 19.5093 29.1105 19.4667 29.2385 19.424C29.4092 19.3387 29.5585 19.296 29.6865 19.296C29.6865 19.2533 29.7292 19.232 29.8145 19.232C29.8998 19.1893 29.9638 19.168 30.0065 19.168H30.1345C30.3478 19.168 30.4545 19.232 30.4545 19.36C30.4545 19.488 30.3905 19.5947 30.2625 19.68C30.2198 19.7227 30.1558 19.744 30.0705 19.744C29.9852 19.7013 29.8998 19.7013 29.8145 19.744C29.6438 19.9147 29.5158 20 29.4305 20C29.3878 20 29.3665 20 29.3665 20C29.3665 19.9573 29.3452 19.936 29.3025 19.936C29.2598 19.936 29.1745 20 29.0465 20.128L28.5985 20.192H28.5345C28.4492 20.192 28.4065 20.2347 28.4065 20.32C28.2358 20.32 28.0652 20.3413 27.8945 20.384C27.7238 20.384 27.5532 20.4053 27.3825 20.448L27.3185 20.512C27.2758 20.512 27.2332 20.5333 27.1905 20.576C27.1478 20.576 27.0838 20.576 26.9985 20.576C26.9132 20.6187 26.6785 20.64 26.2945 20.64C26.5505 20.9813 26.7212 21.3013 26.8065 21.6C26.8918 21.8133 26.9558 22.1547 26.9985 22.624C27.0838 23.0507 27.1052 23.3707 27.0625 23.584C27.0625 23.712 27.0198 23.7547 26.9345 23.712C26.8492 23.6267 26.8065 23.6267 26.8065 23.712C26.8065 23.84 26.8492 23.9253 26.9345 23.968C27.0625 23.968 27.1265 24.0747 27.1265 24.288C27.1265 24.416 27.1052 24.5867 27.0625 24.8C27.0198 24.9707 26.9772 25.1627 26.9345 25.376C26.8918 25.632 26.8278 25.9093 26.7425 26.208C26.6998 26.464 26.5932 26.72 26.4225 26.976L26.2305 27.296V27.68C26.2305 28.0213 26.1238 28.256 25.9105 28.384C25.7398 28.512 25.6118 28.6613 25.5265 28.832C25.4412 29.088 25.3772 29.2587 25.3345 29.344C25.3345 29.4293 25.2492 29.6 25.0785 29.856C24.5238 30.7093 23.8625 31.52 23.0945 32.288C22.3265 33.056 21.5798 33.76 20.8545 34.4C20.2145 34.9547 19.3398 35.4667 18.2305 35.936C17.1638 36.3627 16.1185 36.576 15.0945 36.576ZM15.7345 35.424C15.8625 35.424 16.1185 35.4027 16.5025 35.36C16.8865 35.2747 17.2918 35.0827 17.7185 34.784C17.8038 34.7413 17.8892 34.7627 17.9745 34.848C18.0598 34.9333 18.1452 34.9547 18.2305 34.912C18.4438 34.8267 18.5292 34.7627 18.4865 34.72C18.4438 34.6773 18.5078 34.6347 18.6785 34.592H18.7425C18.9985 34.592 19.1052 34.5707 19.0625 34.528C19.0625 34.4427 19.0838 34.336 19.1265 34.208C19.1265 34.08 19.1905 33.9733 19.3185 33.888C19.4465 33.8027 19.5532 33.7387 19.6385 33.696C20.1078 33.312 20.6838 32.672 21.3665 31.776C22.0492 30.8373 22.7318 29.8987 23.4145 28.96C23.4572 28.8747 23.5212 28.8533 23.6065 28.896C23.6918 28.9387 23.7558 28.9387 23.7985 28.896C23.8412 28.8533 23.8625 28.7253 23.8625 28.512C23.8625 28.384 23.9265 28.192 24.0545 27.936C24.1825 27.6373 24.3105 27.4027 24.4385 27.232C24.4812 27.104 24.5665 26.8693 24.6945 26.528C24.8225 26.144 24.9292 25.8027 25.0145 25.504C25.1425 25.1627 25.1638 24.992 25.0785 24.992C24.9932 24.9493 24.9505 24.9067 24.9505 24.864C24.9505 24.7787 25.0785 24.6933 25.3345 24.608C25.5905 24.5227 25.5692 24.4587 25.2705 24.416C25.1852 24.3733 25.2065 24.288 25.3345 24.16C25.4625 24.032 25.3985 23.9467 25.1425 23.904C24.9292 23.8613 24.8438 23.7973 24.8865 23.712C24.9718 23.6267 25.0358 23.5627 25.0785 23.52C25.2065 23.392 25.2705 23.264 25.2705 23.136C25.2705 22.752 25.1638 22.368 24.9505 21.984C24.7798 21.6 24.5878 21.2587 24.3745 20.96C24.1185 21.1307 23.9905 21.216 23.9905 21.216C23.9478 21.216 23.9265 21.216 23.9265 21.216C23.9265 21.1733 23.8838 21.152 23.7985 21.152C23.7558 21.152 23.7345 21.152 23.7345 21.152C23.7345 21.1093 23.7132 21.088 23.6705 21.088C23.6278 21.088 23.5852 21.1093 23.5425 21.152C23.4998 21.1947 23.4785 21.216 23.4785 21.216C23.4358 21.2587 23.3505 21.28 23.2225 21.28C23.1372 21.28 23.0732 21.28 23.0305 21.28C22.9878 21.28 22.9452 21.2587 22.9025 21.216C22.9025 21.1733 22.8812 21.152 22.8385 21.152C22.7958 21.152 22.7318 21.1947 22.6465 21.28C22.6038 21.3653 22.5398 21.408 22.4545 21.408C22.4118 21.408 22.3905 21.3867 22.3905 21.344C22.3905 21.3013 22.3478 21.28 22.2625 21.28C22.2198 21.28 22.1772 21.3013 22.1345 21.344C22.1345 21.3867 22.1132 21.408 22.0705 21.408C22.0278 21.408 21.9425 21.344 21.8145 21.216H21.7505C21.7505 21.472 21.6865 21.6 21.5585 21.6C21.5158 21.6 21.4518 21.5573 21.3665 21.472C20.8972 21.7707 20.1078 22.4747 18.9985 23.584C17.8892 24.6507 16.9078 25.888 16.0545 27.296C15.8838 27.6373 15.6705 28.0427 15.4145 28.512C15.2012 28.9813 15.0092 29.5147 14.8385 30.112C14.7958 30.368 14.6678 30.56 14.4545 30.688C14.2838 30.816 14.1558 30.9653 14.0705 31.136C14.0278 31.3067 14.0492 31.4133 14.1345 31.456C14.2198 31.4987 14.2838 31.5627 14.3265 31.648C14.3265 31.8187 14.2838 32.0533 14.1985 32.352C14.1558 32.6507 14.1345 32.928 14.1345 33.184C14.1345 33.9947 14.2838 34.5707 14.5825 34.912C14.9238 35.2533 15.3078 35.424 15.7345 35.424ZM26.3805 54.752C24.9725 54.752 23.8205 54.4747 22.9245 53.92C22.0285 53.3653 21.5805 52.5547 21.5805 51.488C21.6232 51.4453 21.6658 51.2533 21.7085 50.912C21.7512 50.6133 21.7512 50.4213 21.7085 50.336L21.9645 49.824C22.1352 49.5253 22.2845 49.3333 22.4125 49.248H22.4765V49.184C22.4765 49.0987 22.4978 48.992 22.5405 48.864C22.5832 48.7787 22.6258 48.7147 22.6685 48.672L22.9245 48.224L23.3725 48.032H23.4365V47.968C23.3938 47.84 23.5858 47.5627 24.0125 47.136C24.3965 46.7093 24.8445 46.2613 25.3565 45.792C25.8685 45.3227 26.2312 45.024 26.4445 44.896L27.5325 44C27.6605 43.872 27.8312 43.744 28.0445 43.616C28.2152 43.5307 28.3645 43.4667 28.4925 43.424C28.6205 43.296 28.7485 43.168 28.8765 43.04C29.0472 42.9547 29.1965 42.8693 29.3245 42.784C29.4098 42.6987 29.5165 42.6133 29.6445 42.528C29.8152 42.4427 29.9645 42.3787 30.0925 42.336C30.1352 42.2507 30.2418 42.1653 30.4125 42.08C30.4978 41.9947 30.5832 41.9307 30.6685 41.888C30.7965 41.8453 30.8818 41.8027 30.9245 41.76L32.2685 40.992C33.0365 40.5227 33.5272 40.224 33.7405 40.096C33.9538 39.968 34.2098 39.8187 34.5085 39.648C34.5938 39.5627 34.7005 39.4773 34.8285 39.392C34.9992 39.3493 34.9778 39.3067 34.7645 39.264C33.8258 38.88 33.0792 38.4533 32.5245 37.984L32.3965 37.792L32.2685 37.664C32.2258 37.536 32.1618 37.472 32.0765 37.472H32.0125C31.8845 37.472 31.7778 37.4293 31.6925 37.344C31.5218 37.2587 31.3085 37.1093 31.0525 36.896C30.8392 36.6827 30.6898 36.512 30.6045 36.384C30.5618 36.256 30.4978 36.128 30.4125 36C30.3272 35.872 30.2632 35.7227 30.2205 35.552C30.1778 35.552 30.1138 35.488 30.0285 35.36C29.9432 35.2747 29.9005 35.1253 29.9005 34.912C29.8578 34.8267 29.8365 34.7627 29.8365 34.72C29.8365 34.6347 29.8152 34.5707 29.7725 34.528C29.7298 34.4427 29.7085 34.336 29.7085 34.208C29.7085 34.08 29.7085 33.9733 29.7085 33.888V33.632C29.6658 33.504 29.6445 33.312 29.6445 33.056C29.6445 32.672 29.7512 32.2667 29.9645 31.84C30.0498 31.7547 30.0925 31.6907 30.0925 31.648C30.2632 31.2213 30.7752 31.008 31.6285 31.008C31.7565 31.008 31.8845 31.0293 32.0125 31.072C32.1832 31.072 32.3325 31.072 32.4605 31.072H33.1005C33.1005 31.072 33.1218 31.072 33.1645 31.072C33.2072 31.0293 33.2498 31.008 33.2925 31.008C33.2925 31.008 33.3138 31.008 33.3565 31.008C33.3992 30.9653 33.4418 30.944 33.4845 30.944L33.6765 31.008C33.7192 31.008 33.7832 31.0293 33.8685 31.072C33.9538 31.072 34.0178 31.072 34.0605 31.072H34.2525L33.9965 30.944V30.752C33.9965 30.5387 33.9538 30.3467 33.8685 30.176C33.7832 30.0053 33.6978 29.8773 33.6125 29.792C33.6978 29.7067 33.7405 29.6213 33.7405 29.536C33.7405 29.4507 33.6978 29.344 33.6125 29.216C33.5698 29.0453 33.5272 28.896 33.4845 28.768C33.6552 28.6827 33.6978 28.5547 33.6125 28.384C33.6125 28.3413 33.5912 28.2773 33.5485 28.192C33.5058 28.1067 33.4845 28.0213 33.4845 27.936V27.104L33.9965 26.272C34.0392 26.2293 34.0392 26.1653 33.9965 26.08C33.9965 25.952 34.0178 25.8453 34.0605 25.76C34.1032 25.5893 34.1885 25.44 34.3165 25.312C34.4872 25.184 34.5938 25.0347 34.6365 24.864C34.6792 24.8213 34.7005 24.672 34.7005 24.416C34.9565 24.288 35.2338 23.9893 35.5325 23.52C35.5752 23.4773 35.5965 23.392 35.5965 23.264C35.6392 23.136 35.6818 23.0507 35.7245 23.008C35.9378 22.7947 36.1725 22.5813 36.4285 22.368C36.6845 22.1547 36.9618 21.8987 37.2605 21.6C37.2605 21.472 37.1538 21.3867 36.9405 21.344C36.7272 21.2587 36.5565 21.1733 36.4285 21.088C36.2578 20.96 36.0445 20.832 35.7885 20.704C35.5752 20.5333 35.4258 20.448 35.3405 20.448C35.2552 20.448 35.1912 20.4693 35.1485 20.512C35.1485 20.512 35.1272 20.512 35.0845 20.512C34.9565 20.2987 34.8072 20.128 34.6365 20C34.5085 19.8293 34.3592 19.68 34.1885 19.552C34.1885 19.4667 34.2098 19.4027 34.2525 19.36C34.2952 19.2747 34.3165 19.1893 34.3165 19.104C34.3165 19.0187 34.2525 18.9333 34.1245 18.848C34.0392 18.72 33.9965 18.592 33.9965 18.464C33.9965 18.3787 34.0818 18.1867 34.2525 17.888C34.4232 17.5893 34.5512 17.44 34.6365 17.44C34.8072 17.44 34.9565 17.5467 35.0845 17.76C35.2552 17.9733 35.3405 18.1867 35.3405 18.4C35.4258 18.4427 35.5112 18.464 35.5965 18.464C35.7245 18.464 35.8098 18.4853 35.8525 18.528C36.0232 18.7413 36.3218 19.0613 36.7485 19.488C37.1752 19.872 37.5378 20.1067 37.8365 20.192C37.8365 20.2347 37.9218 20.2133 38.0925 20.128C38.3058 20 38.4765 19.936 38.6045 19.936C38.6898 19.936 38.7538 19.9147 38.7965 19.872C38.8818 19.7867 38.9672 19.744 39.0525 19.744C39.1805 19.744 39.2445 19.7867 39.2445 19.872C39.2872 19.9147 39.3512 19.936 39.4365 19.936C39.6072 19.936 39.7565 19.8293 39.8845 19.616C39.9698 19.5733 40.0552 19.5093 40.1405 19.424C40.2685 19.3387 40.3965 19.2747 40.5245 19.232C40.5672 19.232 40.6525 19.2533 40.7805 19.296C40.9512 19.3387 41.0792 19.36 41.1645 19.36C41.3778 19.36 41.5485 19.3173 41.6765 19.232C41.8472 19.1467 42.0178 19.104 42.1885 19.104C42.3592 19.1893 42.4658 19.2747 42.5085 19.36C42.5512 19.4027 42.6152 19.4667 42.7005 19.552C42.9138 19.7227 43.1272 19.872 43.3405 20C43.5538 20.128 43.7458 20.3413 43.9165 20.64C44.0018 20.5547 44.1938 20.512 44.4925 20.512C44.8338 20.512 45.2392 20.5547 45.7085 20.64C46.2205 20.7253 46.5618 20.7467 46.7325 20.704C46.8178 20.704 46.8818 20.704 46.9245 20.704C47.0098 20.6613 47.1165 20.64 47.2445 20.64C47.4578 20.64 47.5432 20.6827 47.5005 20.768C47.4578 20.8107 47.5005 20.832 47.6285 20.832C47.7138 20.832 47.9058 20.8107 48.2045 20.768C48.5458 20.6827 48.7592 20.64 48.8445 20.64C48.9298 20.6827 48.9725 20.7253 48.9725 20.768C49.0152 20.8107 49.0792 20.8533 49.1645 20.896C49.2498 20.896 49.4205 20.8747 49.6765 20.832C49.9752 20.7893 50.1672 20.768 50.2525 20.768C50.9778 20.8107 51.6392 20.7893 52.2365 20.704C52.8765 20.576 53.5592 20.4907 54.2845 20.448C54.4552 20.4907 54.5405 20.5973 54.5405 20.768C54.5405 20.9387 54.4552 21.024 54.2845 21.024C54.2418 21.024 54.1565 21.0667 54.0285 21.152C53.9005 21.1947 53.7938 21.1947 53.7085 21.152H53.3245C53.2392 21.152 53.1325 21.1733 53.0045 21.216C52.8765 21.216 52.7485 21.2587 52.6205 21.344C52.5778 21.3013 52.4925 21.28 52.3645 21.28C52.1938 21.28 52.0018 21.3653 51.7885 21.536C51.5752 21.7067 51.3618 21.8347 51.1485 21.92C51.1485 21.7067 51.0632 21.6213 50.8925 21.664C50.7645 21.7067 50.6365 21.7067 50.5085 21.664C50.4232 21.664 50.2525 21.728 49.9965 21.856C49.7832 21.9413 49.5698 22.0267 49.3565 22.112C49.3138 21.984 49.1645 21.8987 48.9085 21.856C48.7378 21.856 48.5885 21.984 48.4605 22.24C48.3325 22.496 47.7565 22.6027 46.7325 22.56C46.8178 22.7307 46.8605 22.8373 46.8605 22.88C46.9032 22.9227 46.8605 23.0293 46.7325 23.2C46.8178 23.2427 46.8818 23.264 46.9245 23.264C47.0098 23.264 47.0738 23.2853 47.1165 23.328C47.1165 23.456 47.1805 23.6053 47.3085 23.776C47.4792 23.9467 47.5858 24.1173 47.6285 24.288C47.7138 24.4587 47.7565 24.608 47.7565 24.736C47.7992 24.864 47.8205 24.9707 47.8205 25.056C47.8205 25.184 47.7565 25.4827 47.6285 25.952C47.4578 26.1227 47.2445 26.4213 46.9885 26.848C46.8178 27.0187 46.5832 27.2533 46.2845 27.552C45.9858 27.8507 45.7298 28.0213 45.5165 28.064C45.4738 28.1067 45.4312 28.1707 45.3885 28.256C45.3885 28.2987 45.3672 28.3627 45.3245 28.448C45.1538 28.576 44.8765 28.768 44.4925 29.024C44.1512 29.2373 43.9378 29.344 43.8525 29.344C43.7672 29.344 43.7458 29.344 43.7885 29.344C43.8312 29.3013 43.7885 29.28 43.6605 29.28C43.5752 29.28 43.5112 29.3013 43.4685 29.344C43.4685 29.3867 43.4472 29.4293 43.4045 29.472H43.3405C43.1698 29.472 42.9565 29.5573 42.7005 29.728C42.4445 29.856 42.3378 30.0053 42.3805 30.176C42.1672 30.176 41.9538 30.1973 41.7405 30.24C41.5272 30.2827 41.3778 30.368 41.2925 30.496C41.2072 30.5387 41.1005 30.6453 40.9725 30.816C40.8872 30.944 40.7592 31.0507 40.5885 31.136C40.4178 31.1787 40.2258 31.2213 40.0125 31.264C39.8418 31.264 39.6925 31.2853 39.5645 31.328C39.4792 31.3707 39.3938 31.4133 39.3085 31.456C39.2232 31.4987 39.1378 31.5627 39.0525 31.648C38.9672 31.6907 38.8605 31.712 38.7325 31.712C38.6045 31.6693 38.4765 31.6693 38.3485 31.712C38.3058 31.712 38.2632 31.7547 38.2205 31.84C38.1778 31.8827 38.1138 31.904 38.0285 31.904C37.9432 31.904 37.8792 31.8827 37.8365 31.84C37.7938 31.7547 37.7298 31.712 37.6445 31.712C37.5592 31.712 37.5165 31.7547 37.5165 31.84C37.5165 31.9253 37.4525 31.968 37.3245 31.968C37.2392 31.968 37.1965 31.968 37.1965 31.968C37.2392 31.9253 37.1965 31.904 37.0685 31.904C36.0018 31.904 35.4045 31.8613 35.2765 31.776C35.1485 31.6907 34.9778 31.5627 34.7645 31.392C34.6792 31.648 34.5512 31.7973 34.3805 31.84L33.8045 32.032L33.3565 32.224L32.7805 32.416C32.6098 32.5013 32.4392 32.5867 32.2685 32.672C32.1405 32.7147 32.0338 32.7573 31.9485 32.8L31.6925 32.992C31.6072 33.0773 31.5645 33.1413 31.5645 33.184C31.4792 33.2267 31.3938 33.4187 31.3085 33.76C31.2658 33.9307 31.2018 34.08 31.1165 34.208C31.0312 34.336 30.9885 34.5067 30.9885 34.72C30.9885 34.9333 31.0738 35.1893 31.2445 35.488C31.3298 35.744 31.4365 35.936 31.5645 36.064C31.6925 36.192 32.0338 36.4267 32.5885 36.768C32.6738 36.8107 32.8232 36.8747 33.0365 36.96C33.2498 37.0453 33.3778 37.1307 33.4205 37.216C33.5485 37.4293 33.6552 37.536 33.7405 37.536C33.7405 37.536 33.8045 37.536 33.9325 37.536C34.0178 37.536 34.1032 37.5147 34.1885 37.472C34.2738 37.472 34.3378 37.5147 34.3805 37.6C34.6365 37.6853 34.8925 37.7707 35.1485 37.856C35.4472 37.984 35.7245 38.0907 35.9805 38.176L36.8125 38.432C38.3912 37.6213 39.5218 37.0667 40.2045 36.768C40.8872 36.512 41.5698 36.2773 42.2525 36.064C42.4232 35.9787 42.6152 35.8933 42.8285 35.808C43.0845 35.7227 43.2125 35.744 43.2125 35.872C43.2125 35.9573 43.1485 36.064 43.0205 36.192C42.8925 36.3627 42.7218 36.4693 42.5085 36.512C41.9538 36.6827 41.3992 36.9387 40.8445 37.28C40.3325 37.664 39.4578 38.2187 38.2205 38.944C41.5058 40.2667 43.1485 41.9307 43.1485 43.936C43.1485 44.1067 43.1272 44.256 43.0845 44.384C43.0845 44.512 43.0632 44.6613 43.0205 44.832C42.9778 44.8747 42.8285 45.152 42.5725 45.664C42.3592 46.2187 42.2525 46.5173 42.2525 46.56C42.0392 46.7733 41.8258 47.008 41.6125 47.264C41.3992 47.52 41.1858 47.776 40.9725 48.032C40.8018 48.2453 40.5672 48.4587 40.2685 48.672C40.0125 48.8853 39.7565 49.0987 39.5005 49.312C39.3725 49.5253 39.0312 49.8027 38.4765 50.144C37.9218 50.528 37.3672 50.8907 36.8125 51.232C36.2578 51.5733 35.8525 51.7867 35.5965 51.872L34.2525 52.576C34.1245 52.6613 33.9538 52.7253 33.7405 52.768C33.5272 52.8533 33.3352 52.9173 33.1645 52.96C33.0365 53.088 32.8872 53.1733 32.7165 53.216C32.5885 53.2587 32.4178 53.3227 32.2045 53.408C32.1192 53.4933 31.9912 53.5573 31.8205 53.6C31.6498 53.6427 31.5005 53.6853 31.3725 53.728C31.2445 53.856 31.0952 53.92 30.9245 53.92L30.4125 54.048C30.2845 54.0907 30.1565 54.112 30.0285 54.112C29.9005 54.1547 29.7512 54.1973 29.5805 54.24C28.6418 54.4533 27.9165 54.6027 27.4045 54.688C27.2338 54.7307 27.0845 54.752 26.9565 54.752C26.7858 54.752 26.5938 54.752 26.3805 54.752ZM38.6045 30.368C38.7325 30.1547 38.8818 30.048 39.0525 30.048C39.1805 30.048 39.2445 30.0693 39.2445 30.112C39.2445 30.1547 39.3085 30.176 39.4365 30.176C39.5645 30.176 39.6925 30.1333 39.8205 30.048C39.9485 29.92 40.0552 29.856 40.1405 29.856C40.3112 29.856 40.3538 29.8773 40.2685 29.92C40.2258 29.9627 40.2898 29.984 40.4605 29.984C40.5885 29.984 40.8658 29.8987 41.2925 29.728C41.7192 29.5147 42.0392 29.3227 42.2525 29.152C42.4658 29.0667 42.8072 28.832 43.2765 28.448C43.7458 28.0213 44.0872 27.808 44.3005 27.808C44.4285 27.808 44.5138 27.8293 44.5565 27.872C44.5992 27.9147 44.6418 27.936 44.6845 27.936C44.7272 27.5947 44.9405 27.296 45.3245 27.04C45.7512 26.7413 45.9645 26.336 45.9645 25.824C45.9645 25.3973 45.6872 24.7787 45.1325 23.968C45.0898 23.8827 45.0045 23.84 44.8765 23.84C44.7485 23.7973 44.6845 23.7547 44.6845 23.712V23.648C44.6845 23.5627 44.6418 23.456 44.5565 23.328C44.5138 23.1573 44.4712 23.0507 44.4285 23.008C44.2578 22.9227 44.1298 22.8373 44.0445 22.752C44.0018 22.6667 43.9165 22.624 43.7885 22.624C43.6605 22.624 43.4685 22.6027 43.2125 22.56C42.9992 22.5173 42.8498 22.496 42.7645 22.496C42.7218 22.4107 42.6365 22.2187 42.5085 21.92C42.3805 21.6213 42.1885 21.472 41.9325 21.472C41.7618 21.472 41.5912 21.5787 41.4205 21.792C41.2925 21.9627 41.1645 22.112 41.0365 22.24C40.9512 22.2827 40.8018 22.3253 40.5885 22.368C40.4178 22.4107 40.3112 22.4533 40.2685 22.496C40.0125 22.6667 39.7138 22.9013 39.3725 23.2C39.0738 23.456 38.7752 23.648 38.4765 23.776C38.3485 24.0747 38.1138 24.352 37.7725 24.608C37.4738 24.864 37.1965 25.056 36.9405 25.184C36.8125 25.44 36.6418 25.696 36.4285 25.952C36.2578 26.208 36.1298 26.464 36.0445 26.72C36.0445 26.7627 36.0232 26.8053 35.9805 26.848C35.9805 26.848 35.9805 26.8907 35.9805 26.976C35.9805 27.104 35.9805 27.232 35.9805 27.36C36.0232 27.4453 35.9592 27.5093 35.7885 27.552V28.576C36.1298 28.704 36.2792 28.9813 36.2365 29.408C36.4925 29.3227 36.7058 29.344 36.8765 29.472V29.792H36.9405C37.1965 29.792 37.5165 29.8773 37.9005 30.048C38.2845 30.176 38.5192 30.2827 38.6045 30.368ZM43.7245 35.808C43.7245 35.808 43.7032 35.744 43.6605 35.616C43.6178 35.488 43.6392 35.424 43.7245 35.424C43.8098 35.4667 43.8952 35.488 43.9805 35.488C44.0658 35.488 44.1298 35.488 44.1725 35.488C44.2578 35.488 44.2792 35.4667 44.2365 35.424C44.2365 35.3813 44.2578 35.36 44.3005 35.36H44.5565L44.7485 35.104C44.9618 35.104 45.1752 35.04 45.3885 34.912C45.6018 34.784 45.7938 34.6773 45.9645 34.592C46.0498 34.592 46.1352 34.592 46.2205 34.592C46.3485 34.5493 46.4765 34.528 46.6045 34.528C46.9032 34.528 47.1165 34.592 47.2445 34.72V34.784C47.2445 34.8693 47.0952 34.9547 46.7965 35.04C46.5405 35.0827 46.3698 35.1467 46.2845 35.232C46.1992 35.232 46.1138 35.2533 46.0285 35.296C45.9858 35.3387 45.9218 35.3813 45.8365 35.424C45.7938 35.4667 45.7298 35.488 45.6445 35.488C45.5592 35.4453 45.4738 35.4453 45.3885 35.488C45.2605 35.5733 45.0472 35.6587 44.7485 35.744C44.4925 35.7867 44.3218 35.808 44.2365 35.808C44.1512 35.808 44.0872 35.808 44.0445 35.808C44.0445 35.7653 43.9378 35.7653 43.7245 35.808ZM27.9165 53.28C28.0445 53.28 28.1938 53.2373 28.3645 53.152C28.5352 53.0667 28.6845 53.024 28.8125 53.024C29.4098 52.9387 30.1565 52.832 31.0525 52.704C31.9485 52.6187 32.8018 52.384 33.6125 52C35.8738 50.976 37.4738 49.8667 38.4125 48.672C39.3512 47.4773 39.8418 46.3467 39.8845 45.28C39.9272 45.1947 39.9698 45.088 40.0125 44.96C40.0552 44.8747 40.0765 44.8107 40.0765 44.768C40.1618 44.64 40.1832 44.5547 40.1405 44.512C40.0125 44.4267 39.9058 44.2773 39.8205 44.064C39.7352 43.8933 39.7138 43.7227 39.7565 43.552C39.7138 43.5093 39.6072 43.3813 39.4365 43.168C39.3085 42.9547 39.2445 42.7627 39.2445 42.592H39.1165C38.8605 42.464 38.6685 42.272 38.5405 42.016C37.9432 41.376 37.0898 40.7787 35.9805 40.224C34.6578 41.0347 33.3138 41.888 31.9485 42.784C30.5832 43.68 29.3458 44.6187 28.2365 45.6C27.4258 46.2827 26.7645 46.944 26.2525 47.584C25.7405 48.2667 25.3565 48.864 25.1005 49.376C25.0578 49.4613 24.9938 49.4827 24.9085 49.44C24.8232 49.44 24.7592 49.4827 24.7165 49.568V49.696C24.7165 49.7813 24.7592 49.888 24.8445 50.016C24.9298 50.144 24.9512 50.2507 24.9085 50.336C24.8658 50.5493 24.8232 50.7413 24.7805 50.912C24.7378 51.1253 24.7165 51.3387 24.7165 51.552C24.7165 51.8507 24.8018 52.1067 24.9725 52.32C25.1005 52.448 25.2925 52.576 25.5485 52.704C25.6338 52.7467 25.7192 52.7893 25.8045 52.832C25.8472 52.8747 25.9112 52.9173 25.9965 52.96C26.0818 53.0027 26.1885 53.0027 26.3165 52.96C26.4018 52.96 26.5085 52.96 26.6365 52.96L27.0845 53.152C27.2125 53.152 27.3405 53.1733 27.4685 53.216C27.5965 53.3013 27.7458 53.3227 27.9165 53.28ZM55.782 36.576C54.8433 36.576 54.0113 36.32 53.286 35.808C52.6033 35.2533 52.262 34.3147 52.262 32.992C52.262 32.5227 52.3473 31.8613 52.518 31.008C52.6887 30.1547 52.966 29.2587 53.35 28.32C53.5633 27.808 53.798 27.3173 54.054 26.848C54.3527 26.3787 54.63 25.9307 54.886 25.504C54.9287 25.4613 55.0567 25.504 55.27 25.632C55.526 25.76 55.6753 25.8027 55.718 25.76C55.7607 25.6747 55.6967 25.5893 55.526 25.504C55.398 25.376 55.3553 25.2907 55.398 25.248C55.4833 25.1627 55.5473 25.12 55.59 25.12C55.6753 25.0773 55.7393 25.0133 55.782 24.928C55.8247 24.8427 55.846 24.7573 55.846 24.672C55.846 24.544 55.782 24.4373 55.654 24.352C55.5687 24.2667 55.6113 24.1387 55.782 23.968C55.9953 23.6693 56.23 23.392 56.486 23.136C56.7847 22.8373 57.0407 22.5813 57.254 22.368C57.3393 22.2827 57.446 22.1547 57.574 21.984C57.702 21.7707 57.7873 21.6427 57.83 21.6L57.958 21.472C58.0007 21.4293 58.0433 21.3867 58.086 21.344C58.086 21.3013 58.086 21.28 58.086 21.28C58.1287 21.28 58.15 21.2587 58.15 21.216C58.15 21.088 58.022 20.96 57.766 20.832C57.51 20.704 57.382 20.6187 57.382 20.576C57.382 20.5333 57.3607 20.4907 57.318 20.448C57.2753 20.4053 57.2327 20.3413 57.19 20.256C57.2327 20.256 57.2753 20.2133 57.318 20.128C57.4033 20 57.4673 19.936 57.51 19.936C57.5527 19.936 57.638 19.9787 57.766 20.064C57.894 20.1067 57.9793 20.128 58.022 20.128C58.0647 20.128 58.086 20.1067 58.086 20.064C58.1287 20.0213 58.1713 20 58.214 20C58.2993 20 58.4913 20.064 58.79 20.192C59.0887 20.2773 59.2593 20.32 59.302 20.32C59.3447 20.32 59.4727 20.2133 59.686 20C59.8993 19.7867 60.0273 19.6587 60.07 19.616C60.1553 19.5307 60.2193 19.4453 60.262 19.36C60.3047 19.232 60.4113 19.0827 60.582 18.912H60.646C60.6887 18.8693 60.71 18.8267 60.71 18.784C60.71 18.7413 60.71 18.72 60.71 18.72C60.7953 18.6347 60.8593 18.5707 60.902 18.528C60.9873 18.4427 61.0513 18.3787 61.094 18.336C61.1367 18.2933 61.158 18.272 61.158 18.272C61.2007 18.272 61.222 18.272 61.222 18.272C61.2647 18.1867 61.3073 18.1227 61.35 18.08C61.4353 18.0373 61.4993 17.9947 61.542 17.952L61.67 17.696C61.7553 17.6107 62.054 17.4187 62.566 17.12C63.078 16.8213 63.462 16.672 63.718 16.672H64.038C64.038 16.672 64.038 16.6933 64.038 16.736C64.038 16.736 64.0593 16.736 64.102 16.736C64.1447 16.736 64.1873 16.736 64.23 16.736C64.2727 16.6933 64.3153 16.672 64.358 16.672C64.358 16.672 64.422 16.736 64.55 16.864C64.5927 16.9067 64.6353 16.928 64.678 16.928C64.7207 16.8853 64.7633 16.864 64.806 16.864C64.8487 16.9067 64.87 16.9493 64.87 16.992C64.87 17.0347 64.8913 17.056 64.934 17.056C65.0193 17.056 65.0407 17.056 64.998 17.056C64.998 17.0133 65.0193 16.992 65.062 16.992C65.1047 16.992 65.126 17.0347 65.126 17.12C65.126 17.2053 65.1473 17.2907 65.19 17.376C65.1473 17.504 65.1047 17.6533 65.062 17.824C65.062 17.952 65.0407 18.0587 64.998 18.144C64.614 18.656 64.3153 18.912 64.102 18.912C64.102 18.9547 64.038 19.04 63.91 19.168C63.782 19.168 63.6327 19.2107 63.462 19.296C63.2913 19.3813 63.1207 19.4667 62.95 19.552V19.744C62.95 19.9147 62.886 20 62.758 20C62.6727 19.9573 62.5873 20.0213 62.502 20.192V20.256C62.5873 20.384 62.7367 20.448 62.95 20.448L63.398 20.512C63.4833 20.512 63.526 20.4907 63.526 20.448C63.5687 20.4053 63.6113 20.384 63.654 20.384C63.6967 20.384 63.718 20.4053 63.718 20.448C63.718 20.448 63.7393 20.448 63.782 20.448C63.8673 20.448 63.9313 20.4267 63.974 20.384C64.0167 20.3413 64.0593 20.32 64.102 20.32L64.678 20.384C64.55 20.1707 64.486 20 64.486 19.872C64.486 19.6587 64.678 19.5307 65.062 19.488C65.6593 19.488 66.1713 19.7013 66.598 20.128C66.6833 20.0853 66.79 20.0853 66.918 20.128C67.046 20.1707 67.174 20.1707 67.302 20.128L67.622 19.936L67.686 20C67.8567 19.9147 67.9633 19.872 68.006 19.872C68.0913 19.872 68.1127 19.8933 68.07 19.936C68.07 19.936 68.0913 19.936 68.134 19.936C68.134 19.936 68.1767 19.8933 68.262 19.808C68.3047 19.808 68.3473 19.8293 68.39 19.872C68.4753 19.872 68.5393 19.8507 68.582 19.808L68.774 19.616H69.542L69.606 19.552C69.6913 19.5093 69.798 19.4667 69.926 19.424C70.0967 19.3387 70.246 19.296 70.374 19.296C70.374 19.2533 70.4167 19.232 70.502 19.232C70.5873 19.1893 70.6513 19.168 70.694 19.168H70.822C71.0353 19.168 71.142 19.232 71.142 19.36C71.142 19.488 71.078 19.5947 70.95 19.68C70.9073 19.7227 70.8433 19.744 70.758 19.744C70.6727 19.7013 70.5873 19.7013 70.502 19.744C70.3313 19.9147 70.2033 20 70.118 20C70.0753 20 70.054 20 70.054 20C70.054 19.9573 70.0327 19.936 69.99 19.936C69.9473 19.936 69.862 20 69.734 20.128L69.286 20.192H69.222C69.1367 20.192 69.094 20.2347 69.094 20.32C68.9233 20.32 68.7527 20.3413 68.582 20.384C68.4113 20.384 68.2407 20.4053 68.07 20.448L68.006 20.512C67.9633 20.512 67.9207 20.5333 67.878 20.576C67.8353 20.576 67.7713 20.576 67.686 20.576C67.6007 20.6187 67.366 20.64 66.982 20.64C67.238 20.9813 67.4087 21.3013 67.494 21.6C67.5793 21.8133 67.6433 22.1547 67.686 22.624C67.7713 23.0507 67.7927 23.3707 67.75 23.584C67.75 23.712 67.7073 23.7547 67.622 23.712C67.5367 23.6267 67.494 23.6267 67.494 23.712C67.494 23.84 67.5367 23.9253 67.622 23.968C67.75 23.968 67.814 24.0747 67.814 24.288C67.814 24.416 67.7927 24.5867 67.75 24.8C67.7073 24.9707 67.6647 25.1627 67.622 25.376C67.5793 25.632 67.5153 25.9093 67.43 26.208C67.3873 26.464 67.2807 26.72 67.11 26.976L66.918 27.296V27.68C66.918 28.0213 66.8113 28.256 66.598 28.384C66.4273 28.512 66.2993 28.6613 66.214 28.832C66.1287 29.088 66.0647 29.2587 66.022 29.344C66.022 29.4293 65.9367 29.6 65.766 29.856C65.2113 30.7093 64.55 31.52 63.782 32.288C63.014 33.056 62.2673 33.76 61.542 34.4C60.902 34.9547 60.0273 35.4667 58.918 35.936C57.8513 36.3627 56.806 36.576 55.782 36.576ZM56.422 35.424C56.55 35.424 56.806 35.4027 57.19 35.36C57.574 35.2747 57.9793 35.0827 58.406 34.784C58.4913 34.7413 58.5767 34.7627 58.662 34.848C58.7473 34.9333 58.8327 34.9547 58.918 34.912C59.1313 34.8267 59.2167 34.7627 59.174 34.72C59.1313 34.6773 59.1953 34.6347 59.366 34.592H59.43C59.686 34.592 59.7927 34.5707 59.75 34.528C59.75 34.4427 59.7713 34.336 59.814 34.208C59.814 34.08 59.878 33.9733 60.006 33.888C60.134 33.8027 60.2407 33.7387 60.326 33.696C60.7953 33.312 61.3713 32.672 62.054 31.776C62.7367 30.8373 63.4193 29.8987 64.102 28.96C64.1447 28.8747 64.2087 28.8533 64.294 28.896C64.3793 28.9387 64.4433 28.9387 64.486 28.896C64.5287 28.8533 64.55 28.7253 64.55 28.512C64.55 28.384 64.614 28.192 64.742 27.936C64.87 27.6373 64.998 27.4027 65.126 27.232C65.1687 27.104 65.254 26.8693 65.382 26.528C65.51 26.144 65.6167 25.8027 65.702 25.504C65.83 25.1627 65.8513 24.992 65.766 24.992C65.6807 24.9493 65.638 24.9067 65.638 24.864C65.638 24.7787 65.766 24.6933 66.022 24.608C66.278 24.5227 66.2567 24.4587 65.958 24.416C65.8727 24.3733 65.894 24.288 66.022 24.16C66.15 24.032 66.086 23.9467 65.83 23.904C65.6167 23.8613 65.5313 23.7973 65.574 23.712C65.6593 23.6267 65.7233 23.5627 65.766 23.52C65.894 23.392 65.958 23.264 65.958 23.136C65.958 22.752 65.8513 22.368 65.638 21.984C65.4673 21.6 65.2753 21.2587 65.062 20.96C64.806 21.1307 64.678 21.216 64.678 21.216C64.6353 21.216 64.614 21.216 64.614 21.216C64.614 21.1733 64.5713 21.152 64.486 21.152C64.4433 21.152 64.422 21.152 64.422 21.152C64.422 21.1093 64.4007 21.088 64.358 21.088C64.3153 21.088 64.2727 21.1093 64.23 21.152C64.1873 21.1947 64.166 21.216 64.166 21.216C64.1233 21.2587 64.038 21.28 63.91 21.28C63.8247 21.28 63.7607 21.28 63.718 21.28C63.6753 21.28 63.6327 21.2587 63.59 21.216C63.59 21.1733 63.5687 21.152 63.526 21.152C63.4833 21.152 63.4193 21.1947 63.334 21.28C63.2913 21.3653 63.2273 21.408 63.142 21.408C63.0993 21.408 63.078 21.3867 63.078 21.344C63.078 21.3013 63.0353 21.28 62.95 21.28C62.9073 21.28 62.8647 21.3013 62.822 21.344C62.822 21.3867 62.8007 21.408 62.758 21.408C62.7153 21.408 62.63 21.344 62.502 21.216H62.438C62.438 21.472 62.374 21.6 62.246 21.6C62.2033 21.6 62.1393 21.5573 62.054 21.472C61.5847 21.7707 60.7953 22.4747 59.686 23.584C58.5767 24.6507 57.5953 25.888 56.742 27.296C56.5713 27.6373 56.358 28.0427 56.102 28.512C55.8887 28.9813 55.6967 29.5147 55.526 30.112C55.4833 30.368 55.3553 30.56 55.142 30.688C54.9713 30.816 54.8433 30.9653 54.758 31.136C54.7153 31.3067 54.7367 31.4133 54.822 31.456C54.9073 31.4987 54.9713 31.5627 55.014 31.648C55.014 31.8187 54.9713 32.0533 54.886 32.352C54.8433 32.6507 54.822 32.928 54.822 33.184C54.822 33.9947 54.9713 34.5707 55.27 34.912C55.6113 35.2533 55.9953 35.424 56.422 35.424Z" fill="white"/>
</svg>
